<?xml version="1.0" encoding="UTF-8"?>
<svg version="1.1" xmlns="http://www.w3.org/2000/svg" width="128" height="128">
<path d="M0 0 C0.97801575 0.34565002 1.95603149 0.69130005 2.96368408 1.04742432 C5.0198187 1.77773054 7.07373131 2.51431989 9.12548828 3.25683594 C12.26369794 4.38992921 15.41025565 5.49696859 18.55859375 6.6015625 C20.56044587 7.31616938 22.56176746 8.03226455 24.5625 8.75 C25.50107849 9.07933533 26.43965698 9.40867065 27.40667725 9.74798584 C36.43682823 13.05146635 39.62110776 18.02423376 44.328125 26.140625 C45.1005957 27.42259766 45.1005957 27.42259766 45.88867188 28.73046875 C46.37013672 29.55675781 46.85160156 30.38304687 47.34765625 31.234375 C47.78827393 31.98396484 48.2288916 32.73355469 48.68286133 33.50585938 C49.515625 35.640625 49.515625 35.640625 49.4675293 37.77539062 C48.06444303 40.5247056 46.31006183 40.87803979 43.453125 41.890625 C42.53402344 42.22578125 41.61492187 42.5609375 40.66796875 42.90625 C39.95769531 43.14859375 39.24742188 43.3909375 38.515625 43.640625 C38.50104248 44.65487549 38.48645996 45.66912598 38.47143555 46.71411133 C38.41346247 50.47716529 38.33623041 54.23962021 38.25317383 58.00219727 C38.21991964 59.63067909 38.19188916 61.25927631 38.16918945 62.88793945 C38.13565143 65.22917861 38.08333915 67.56935986 38.02734375 69.91015625 C38.02095383 70.63838089 38.0145639 71.36660553 38.00798035 72.11689758 C37.86009894 77.20072993 37.86009894 77.20072993 36.26013184 79.24389648 C34.28423087 80.82588927 32.5505715 81.59066316 30.17114258 82.44995117 C29.29625687 82.77005661 28.42137115 83.09016205 27.51997375 83.41996765 C26.57623398 83.75446426 25.6324942 84.08896088 24.66015625 84.43359375 C23.19675056 84.95993156 23.19675056 84.95993156 21.70378113 85.49690247 C19.6383094 86.23659954 17.57122797 86.97181488 15.50268555 87.70288086 C12.35211245 88.81962249 9.21023247 89.95865617 6.06835938 91.09960938 C4.05778168 91.81647996 2.04672832 92.53201816 0.03515625 93.24609375 C-1.36527168 93.75694771 -1.36527168 93.75694771 -2.79399109 94.27812195 C-13.05811548 97.85815002 -19.57930877 96.6780231 -29.546875 92.921875 C-30.57876953 92.54454224 -31.61066406 92.16720947 -32.67382812 91.77844238 C-35.94857657 90.57784195 -39.21641076 89.35955497 -42.484375 88.140625 C-44.71180584 87.32043568 -46.93966643 86.50141245 -49.16796875 85.68359375 C-54.61276934 83.68486948 -60.04784801 81.66233348 -65.484375 79.640625 C-65.484375 65.780625 -65.484375 51.920625 -65.484375 37.640625 C-67.134375 38.300625 -68.784375 38.960625 -70.484375 39.640625 C-72.8164552 39.71708665 -75.15283378 39.73205799 -77.484375 39.640625 C-79.30123921 34.28497175 -77.04007854 30.19409447 -74.671875 25.328125 C-67.13822868 10.89339231 -52.76687872 7.66197434 -38.20385742 3.03393555 C-33.96534037 1.71556975 -29.70946432 0.46857733 -25.44116211 -0.74938965 C-23.34532579 -1.35853905 -23.34532579 -1.35853905 -20.90820312 -2.52832031 C-13.52876937 -5.05849683 -6.98689833 -2.53374695 0 0 Z " fill="#464D56" transform="translate(78.484375,30.359375)"/>
<path d="M0 0 C5.89293863 1.30954192 11.00159618 2.56362077 16.58984375 4.56640625 C17.26044327 4.80536118 17.93104279 5.0443161 18.6219635 5.29051208 C20.72896872 6.0428503 22.8331825 6.80268148 24.9375 7.5625 C26.37288143 8.0753331 27.80842717 8.58770654 29.24414062 9.09960938 C39.63396799 12.816984 39.63396799 12.816984 42 14 C42 31.49 42 48.98 42 67 C35.25 65.875 35.25 65.875 32.01416016 64.69311523 C31.28398682 64.42930054 30.55381348 64.16548584 29.80151367 63.89367676 C29.05490479 63.61809937 28.3082959 63.34252197 27.5390625 63.05859375 C26.83740967 62.80404419 26.13575684 62.54949463 25.4128418 62.28723145 C22.81482495 61.342996 20.22009955 60.38972395 17.625 59.4375 C11.80875 57.313125 5.9925 55.18875 0 53 C0 35.51 0 18.02 0 0 Z " fill="#FEFEFE" transform="translate(19,52)"/>
<path d="M0 0 C3.22914643 3.22914643 4.82681003 6.02830798 7 10 C14.22394488 8.57323334 20.95751404 6.37838686 27.875 3.875 C29.91252023 3.13894582 31.95152142 2.4069745 33.9921875 1.6796875 C34.88276855 1.35726074 35.77334961 1.03483398 36.69091797 0.70263672 C39 0 39 0 42 0 C42 9.57 42 19.14 42 29 C36.98459871 30.83795797 31.96823531 32.67263734 26.94873047 34.49926758 C25.24296733 35.1210896 23.53787898 35.74476603 21.83349609 36.37036133 C19.37774659 37.27137625 16.91961484 38.16560412 14.4609375 39.05859375 C13.70444916 39.3377916 12.94796082 39.61698944 12.16854858 39.90464783 C11.4482547 40.16484207 10.72796082 40.42503632 9.98583984 40.69311523 C9.35962738 40.92183823 8.73341492 41.15056122 8.08822632 41.38621521 C5.45058663 42.16148708 2.71181013 42.54803164 0 43 C0 28.81 0 14.62 0 0 Z " fill="#FDFDFD" transform="translate(67,76)"/>
<path d="M0 0 C1.921875 2.65234375 1.921875 2.65234375 3.75 5.9375 C4.36359375 7.01902344 4.9771875 8.10054687 5.609375 9.21484375 C7 12 7 12 7 14 C1.36240225 16.02376278 -4.27925685 18.03558752 -9.92504883 20.03637695 C-11.84581515 20.71896602 -13.76542228 21.40482605 -15.68383789 22.09399414 C-18.43859779 23.08297359 -21.19728704 24.06018618 -23.95703125 25.03515625 C-24.81649857 25.34655045 -25.67596588 25.65794464 -26.56147766 25.97877502 C-27.36208115 26.25914108 -28.16268463 26.53950714 -28.98754883 26.82836914 C-29.6914827 27.07929825 -30.39541656 27.33022736 -31.12068176 27.58876038 C-33 28 -33 28 -36 27 C-37.82421875 24.6015625 -37.82421875 24.6015625 -39.6875 21.625 C-40.31011719 20.64789063 -40.93273437 19.67078125 -41.57421875 18.6640625 C-43 16 -43 16 -43 13 C-37.52401646 10.97406857 -32.04310411 8.96234057 -26.55712891 6.96362305 C-24.6914456 6.28163775 -22.82717083 5.59578631 -20.96435547 4.90600586 C-18.2871374 3.91542091 -15.60516855 2.93883148 -12.921875 1.96484375 C-12.08944275 1.65344955 -11.2570105 1.34205536 -10.39935303 1.02122498 C-9.61884583 0.74085892 -8.83833862 0.46049286 -8.03417969 0.17163086 C-7.35023132 -0.07929825 -6.66628296 -0.33022736 -5.96160889 -0.58876038 C-3.59199201 -1.08553644 -2.24536677 -0.88829732 0 0 Z " fill="#FBFBFB" transform="translate(112,52)"/>
<path d="M0 0 C5.50315819 1.22292404 10.18372014 2.27152047 15.34765625 4.1640625 C16.99604492 4.76347656 16.99604492 4.76347656 18.67773438 5.375 C19.79470703 5.7875 20.91167969 6.2 22.0625 6.625 C23.21427734 7.04523437 24.36605469 7.46546875 25.55273438 7.8984375 C28.37036794 8.92728295 31.18601184 9.96123455 34 11 C34 11.66 34 12.32 34 13 C29.64220766 14.57262273 25.28225003 16.13902779 20.92016602 17.69970703 C19.43648059 18.23152998 17.95340175 18.76504836 16.47094727 19.30029297 C14.34027708 20.06924592 12.2075015 20.83207986 10.07421875 21.59375 C9.0803138 21.95466736 9.0803138 21.95466736 8.06632996 22.32287598 C5.22936915 23.32990715 3.03673783 24 0 24 C0 16.08 0 8.16 0 0 Z " fill="#FCFCFD" transform="translate(67,35)"/>
</svg>
