<?xml version="1.0" encoding="UTF-8"?>
<svg version="1.1" xmlns="http://www.w3.org/2000/svg" width="32" height="32">
<path d="M0 0 C9.24 0 18.48 0 28 0 C28 5.28 28 10.56 28 16 C18.76 16 9.52 16 0 16 C0 10.72 0 5.44 0 0 Z M4 2 C4 2.66 4 3.32 4 4 C3.34 4 2.68 4 2 4 C2 6.64 2 9.28 2 12 C2.66 12 3.32 12 4 12 C4 12.66 4 13.32 4 14 C10.6 14 17.2 14 24 14 C24 13.34 24 12.68 24 12 C24.66 12 25.32 12 26 12 C26 9.36 26 6.72 26 4 C25.34 4 24.68 4 24 4 C24 3.34 24 2.68 24 2 C17.4 2 10.8 2 4 2 Z " fill="#000000" transform="translate(2,5)"/>
<path d="M0 0 C8.91 0 17.82 0 27 0 C27 1.98 27 3.96 27 6 C26.35675781 5.86722656 25.71351562 5.73445313 25.05078125 5.59765625 C18.61633287 4.34013923 12.29437299 3.63151956 5.75 3.24609375 C3 3 3 3 0 2 C0 1.34 0 0.68 0 0 Z " fill="#000000" transform="translate(2,22)"/>
<path d="M0 0 C3 0.125 3 0.125 4 1.125 C4.125 4.125 4.125 4.125 4 7.125 C3 8.125 3 8.125 0 8.25 C-3 8.125 -3 8.125 -4 7.125 C-4.125 4.125 -4.125 4.125 -4 1.125 C-3 0.125 -3 0.125 0 0 Z M-1 3.125 C-1 3.785 -1 4.445 -1 5.125 C-0.34 5.125 0.32 5.125 1 5.125 C1 4.465 1 3.805 1 3.125 C0.34 3.125 -0.32 3.125 -1 3.125 Z " fill="#000000" transform="translate(16,8.875)"/>
<path d="M0 0 C1.32 0 2.64 0 4 0 C4 1.32 4 2.64 4 4 C2.68 4 1.36 4 0 4 C0 2.68 0 1.36 0 0 Z " fill="#000000" transform="translate(21,11)"/>
<path d="M0 0 C1.32 0 2.64 0 4 0 C4 1.32 4 2.64 4 4 C2.68 4 1.36 4 0 4 C0 2.68 0 1.36 0 0 Z " fill="#000000" transform="translate(7,11)"/>
</svg>
