<svg xmlns="http://www.w3.org/2000/svg" xmlns:xlink="http://www.w3.org/1999/xlink" zoomAndPan="magnify" viewBox="0 0 810 809.999993" preserveAspectRatio="xMidYMid meet" version="1.0"><script xmlns=""/><script xmlns=""/><script xmlns=""/><script xmlns=""/><script xmlns=""/><defs><clipPath id="id1"><path d="M 535 296 L 740.695312 296 L 740.695312 519 L 535 519 Z M 535 296 " clip-rule="nonzero"/></clipPath><clipPath id="id2"><path d="M 575 462 L 688 462 L 688 574.546875 L 575 574.546875 Z M 575 462 " clip-rule="nonzero"/></clipPath><clipPath id="id3"><path d="M 210 462 L 323 462 L 323 574.546875 L 210 574.546875 Z M 210 462 " clip-rule="nonzero"/></clipPath></defs><rect x="-81" width="972" fill="rgb(100%, 100%, 100%)" y="-80.999999" height="971.999992" fill-opacity="1"/><rect x="-81" width="972" fill="rgb(100%, 100%, 100%)" y="-80.999999" height="971.999992" fill-opacity="1"/><rect x="-81" width="972" fill="rgb(100%, 100%, 100%)" y="-80.999999" height="971.999992" fill-opacity="1"/><rect x="-81" width="972" fill="rgb(100%, 100%, 100%)" y="-80.999999" height="971.999992" fill-opacity="1"/><g clip-path="url(#id1)"><path fill="rgb(0%, 50.19989%, 21.569824%)" d="M 583.863281 319.960938 L 654.242188 319.960938 L 705.917969 394.1875 L 575.441406 394.1875 Z M 560.917969 296.882812 L 535.769531 518.53125 L 566.589844 518.53125 C 566.589844 518.519531 566.589844 518.511719 566.589844 518.5 C 568.535156 501.367188 577.203125 484.933594 590.695312 472.828125 C 604.179688 460.710938 621.382812 453.90625 638.511719 453.90625 C 655.644531 453.90625 671.300781 460.710938 682.042969 472.828125 C 692.78125 484.933594 697.726562 501.367188 695.78125 518.5 C 695.78125 518.511719 695.773438 518.519531 695.773438 518.53125 L 726.589844 518.53125 L 740.695312 394.1875 L 672.957031 296.882812 L 560.917969 296.882812 " fill-opacity="1" fill-rule="nonzero"/></g><path fill="rgb(0%, 50.19989%, 21.569824%)" d="M 177.1875 236.191406 L 173.355469 269.972656 L 234.390625 269.972656 C 240.894531 269.972656 245.527344 275.203125 244.789062 281.703125 C 244.054688 288.203125 238.226562 293.4375 231.726562 293.4375 L 121.761719 293.4375 C 115.257812 293.4375 109.4375 298.667969 108.695312 305.171875 C 107.960938 311.667969 112.597656 316.902344 119.09375 316.902344 L 309.660156 316.902344 C 316.15625 316.902344 320.800781 322.136719 320.058594 328.636719 C 319.324219 335.140625 313.496094 340.367188 306.996094 340.367188 L 156.140625 340.367188 C 149.636719 340.367188 143.816406 345.605469 143.074219 352.101562 C 142.335938 358.605469 146.980469 363.839844 153.476562 363.839844 L 237.964844 363.839844 C 244.460938 363.839844 249.097656 369.070312 248.363281 375.574219 C 247.625 382.070312 241.804688 387.304688 235.300781 387.304688 L 83.261719 387.304688 C 76.757812 387.304688 70.929688 392.535156 70.195312 399.039062 C 69.457031 405.535156 74.097656 410.773438 80.59375 410.773438 L 157.382812 410.773438 L 145.160156 518.53125 L 201.972656 518.53125 C 201.972656 518.519531 201.972656 518.511719 201.972656 518.5 C 203.917969 501.367188 212.589844 484.941406 226.074219 472.828125 C 239.5625 460.710938 256.765625 453.90625 273.898438 453.90625 C 291.027344 453.90625 306.6875 460.710938 317.425781 472.828125 C 328.167969 484.933594 333.105469 501.367188 331.160156 518.5 C 331.160156 518.511719 331.160156 518.519531 331.160156 518.53125 L 529.84375 518.53125 L 561.878906 236.191406 L 177.1875 236.191406 " fill-opacity="1" fill-rule="nonzero"/><g clip-path="url(#id2)"><path fill="rgb(0%, 50.19989%, 21.569824%)" d="M 634.28125 491.222656 C 641.519531 491.222656 648.125 494.089844 652.664062 499.210938 C 657.203125 504.328125 659.285156 511.269531 658.464844 518.5 C 657.648438 525.734375 653.988281 532.675781 648.289062 537.792969 C 642.59375 542.90625 635.324219 545.78125 628.09375 545.78125 C 613.023438 545.78125 602.195312 533.566406 603.902344 518.5 C 604.726562 511.269531 608.386719 504.328125 614.085938 499.210938 C 619.785156 494.089844 627.046875 491.222656 634.28125 491.222656 Z M 637.492188 462.929688 C 622.75 462.929688 607.957031 468.785156 596.351562 479.210938 C 584.75 489.628906 577.289062 503.761719 575.621094 518.5 C 573.949219 533.242188 578.199219 547.371094 587.441406 557.792969 C 596.671875 568.210938 610.144531 574.066406 624.878906 574.066406 C 639.617188 574.066406 654.414062 568.210938 666.015625 557.792969 C 677.621094 547.371094 685.078125 533.242188 686.75 518.5 C 688.417969 503.761719 684.167969 489.628906 674.9375 479.210938 C 665.695312 468.785156 652.226562 462.929688 637.492188 462.929688 " fill-opacity="1" fill-rule="nonzero"/></g><g clip-path="url(#id3)"><path fill="rgb(0%, 50.19989%, 21.569824%)" d="M 269.660156 491.222656 C 276.898438 491.222656 283.511719 494.089844 288.050781 499.210938 C 292.582031 504.328125 294.671875 511.269531 293.851562 518.5 C 293.027344 525.734375 289.367188 532.675781 283.667969 537.792969 C 277.972656 542.90625 270.707031 545.78125 263.472656 545.78125 C 248.402344 545.78125 237.578125 533.566406 239.289062 518.5 C 240.105469 511.269531 243.769531 504.328125 249.464844 499.210938 C 255.164062 494.089844 262.429688 491.222656 269.660156 491.222656 Z M 272.871094 462.929688 C 258.136719 462.929688 243.335938 468.785156 231.738281 479.210938 C 220.132812 489.628906 212.675781 503.761719 211.003906 518.5 C 209.328125 533.242188 213.578125 547.371094 222.820312 557.792969 C 232.058594 568.210938 245.527344 574.066406 260.261719 574.066406 C 275 574.066406 289.796875 568.210938 301.402344 557.792969 C 313.007812 547.371094 320.457031 533.242188 322.136719 518.5 C 323.804688 503.761719 319.554688 489.628906 310.316406 479.210938 C 301.082031 468.785156 287.609375 462.929688 272.871094 462.929688 " fill-opacity="1" fill-rule="nonzero"/></g><path fill="rgb(0%, 50.19989%, 21.569824%)" d="M 276.214844 518.5 C 275.929688 521.058594 274.632812 523.515625 272.621094 525.324219 C 270.605469 527.136719 268.03125 528.152344 265.476562 528.152344 C 262.914062 528.152344 260.578125 527.136719 258.972656 525.324219 C 257.363281 523.515625 256.628906 521.058594 256.917969 518.5 C 257.519531 513.167969 262.332031 508.851562 267.664062 508.851562 C 272.996094 508.851562 276.824219 513.167969 276.214844 518.5 " fill-opacity="1" fill-rule="nonzero"/><path fill="rgb(0%, 50.19989%, 21.569824%)" d="M 640.835938 518.5 C 640.542969 521.058594 639.253906 523.515625 637.234375 525.324219 C 635.21875 527.136719 632.652344 528.152344 630.089844 528.152344 C 627.53125 528.152344 625.191406 527.136719 623.589844 525.324219 C 621.984375 523.515625 621.242188 521.058594 621.539062 518.5 C 622.140625 513.167969 626.949219 508.851562 632.277344 508.851562 C 637.609375 508.851562 641.441406 513.167969 640.835938 518.5 " fill-opacity="1" fill-rule="nonzero"/></svg>