<?xml version="1.0" encoding="UTF-8"?>
<svg version="1.1" xmlns="http://www.w3.org/2000/svg" width="512" height="512">
<path d="M0 0 C1.73219968 -0.00532769 3.46439474 -0.01239466 5.19658101 -0.02104706 C9.94796063 -0.03967191 14.69902854 -0.0333699 19.45042109 -0.02289402 C24.5780183 -0.01590156 29.70555151 -0.03190037 34.83312988 -0.04489136 C44.87523516 -0.06653618 54.91722713 -0.06640314 64.95934807 -0.05826581 C73.12174534 -0.05196626 81.28410957 -0.05310245 89.4465065 -0.05953789 C91.18902736 -0.06089037 91.18902736 -0.06089037 92.96675066 -0.06227018 C95.32670108 -0.06412138 97.6866515 -0.06598394 100.04660191 -0.06785773 C122.17861331 -0.08443807 144.31056098 -0.07571519 166.44256856 -0.05887216 C186.68852101 -0.04417697 206.93432504 -0.05880068 227.18025838 -0.08764232 C247.97054428 -0.11703877 268.76076169 -0.12800774 289.55106747 -0.11846012 C291.9029529 -0.11743757 294.25483834 -0.11644296 296.60672379 -0.11547661 C298.34246272 -0.11476202 298.34246272 -0.11476202 300.11326709 -0.114033 C308.26399276 -0.1118691 316.41465356 -0.12167179 324.56536484 -0.13624763 C334.50125378 -0.15376802 344.43695353 -0.1536578 354.37283503 -0.13089598 C359.44146231 -0.1197509 364.50975622 -0.11659749 369.57836914 -0.13519669 C374.22088888 -0.15201299 378.86278477 -0.1456347 383.50526418 -0.1209799 C385.18217434 -0.11609998 386.85913494 -0.11960312 388.53600286 -0.13246734 C397.60979969 -0.19703877 405.48553519 -0.01343777 413.16043091 5.5146637 C415.41433716 7.8662262 415.41433716 7.8662262 416.72293091 10.1396637 C417.17796997 10.89505432 417.63300903 11.65044495 418.10183716 12.4287262 C421.21815671 18.56937063 421.27883578 26.33748889 419.51199341 32.9365387 C416.65451969 39.23763458 411.81466255 42.95335096 405.97293091 46.3896637 C400.67053201 47.954306 395.64794455 47.75795248 390.16043091 47.5146637 C390.14625122 48.22364807 390.13207153 48.93263245 390.11746216 49.6631012 C386.87023948 122.15515331 343.50202828 191.67428202 297.69949341 245.40138245 C296.47359497 246.84964417 296.47359497 246.84964417 295.22293091 248.3271637 C294.47140747 249.19985901 293.71988403 250.07255432 292.94558716 250.97169495 C291.0584237 253.65997375 290.22956836 255.23329392 290.16043091 258.5146637 C291.33606763 260.49495491 291.33606763 260.49495491 293.28543091 262.2646637 C297.29557761 266.47706128 300.84718617 270.88100202 304.34793091 275.5146637 C304.90456421 276.25096008 305.46119751 276.98725647 306.03469849 277.74586487 C307.17956915 279.26076505 308.32401636 280.77598534 309.4680481 282.29151917 C311.06799152 284.39323365 312.69028356 286.47468948 314.32449341 288.54981995 C351.65659202 336.14098828 391.31387157 402.88283556 390.16043091 465.5146637 C390.91066528 465.45665588 391.66089966 465.39864807 392.43386841 465.33888245 C401.04524777 464.95928764 407.5417604 466.30803226 414.04324341 472.22950745 C419.66252477 478.43243397 420.61682718 484.02478348 420.47683716 492.28419495 C419.90071694 498.16631122 417.58255562 501.77651127 413.91043091 506.2646637 C405.18957229 513.39991166 397.03730392 513.08672492 386.32086182 513.02932739 C384.58866213 513.03465508 382.85646708 513.04172206 381.12428081 513.05037445 C376.37290118 513.0689993 371.62183328 513.06269729 366.87044072 513.05222142 C361.74284351 513.04522895 356.61531031 513.06122776 351.48773193 513.07421875 C341.44562666 513.09586357 331.40363469 513.09573053 321.36151375 513.08759321 C313.19911647 513.08129365 305.03675224 513.08242984 296.87435532 513.08886528 C295.13183446 513.09021776 295.13183446 513.09021776 293.35411116 513.09159757 C290.99416073 513.09344877 288.63421032 513.09531133 286.27425991 513.09718513 C264.1422485 513.11376546 242.01030084 513.10504258 219.87829326 513.08819955 C199.6323408 513.07350437 179.38653678 513.08812807 159.14060344 513.11696971 C138.35031753 513.14636616 117.56010012 513.15733513 96.76979434 513.14778751 C94.41790892 513.14676496 92.06602348 513.14577035 89.71413803 513.144804 C88.55697874 513.14432761 87.39981945 513.14385122 86.20759473 513.14336039 C78.05686906 513.14119649 69.90620826 513.15099919 61.75549698 513.16557503 C51.81960803 513.18309541 41.88390829 513.18298519 31.94802679 513.16022337 C26.8793995 513.14907829 21.81110559 513.14592488 16.74249268 513.16452408 C12.09997294 513.18134039 7.45807705 513.1749621 2.81559764 513.15030729 C1.13868747 513.14542738 -0.53827312 513.14893051 -2.21514104 513.16179473 C-11.28893787 513.22636616 -19.16467338 513.04276517 -26.83956909 507.5146637 C-29.09347534 505.1631012 -29.09347534 505.1631012 -30.40206909 502.8896637 C-30.85710815 502.13427307 -31.31214722 501.37888245 -31.78097534 500.6006012 C-34.89729489 494.45995676 -34.95797396 486.69183851 -33.19113159 480.0927887 C-30.33365788 473.79169281 -25.49380074 470.07597643 -19.65206909 466.6396637 C-14.34967019 465.0750214 -9.32708274 465.27137491 -3.83956909 465.5146637 C-3.81829956 464.45118713 -3.81829956 464.45118713 -3.79660034 463.3662262 C-0.551016 390.9107487 42.84845852 321.28707152 88.60964966 267.64356995 C89.43078247 266.67290588 90.25191528 265.70224182 91.09793091 264.7021637 C91.84945435 263.82946838 92.60097778 262.95677307 93.37527466 262.05763245 C95.26611902 259.36411018 96.10208058 257.80350026 96.16043091 254.5146637 C94.91852713 252.43239319 94.91852713 252.43239319 92.91043091 250.5771637 C87.20256462 244.5636949 82.2073525 238.07877715 77.16043091 231.5146637 C76.61000122 230.80471252 76.05957153 230.09476135 75.49246216 229.36329651 C59.85626371 209.15043548 45.43759654 187.94126954 33.16043091 165.5146637 C32.71683228 164.72027893 32.27323364 163.92589417 31.81619263 163.10743713 C13.20158052 129.67630594 -4.63706609 86.59201648 -3.83956909 47.5146637 C-4.96492065 47.60167542 -4.96492065 47.60167542 -6.11300659 47.69044495 C-14.72438595 48.07003975 -21.22089858 46.72129513 -27.72238159 40.79981995 C-33.34166295 34.59689342 -34.29596537 29.00454392 -34.15597534 20.74513245 C-33.57985513 14.86301618 -31.2616938 11.25281612 -27.58956909 6.7646637 C-18.86871047 -0.37058427 -10.71644211 -0.05739752 0 0 Z M44.16043091 47.5146637 C44.82049671 56.75558495 45.56010685 64.76802372 47.78543091 73.5771637 C48.05121948 74.64861633 48.31700806 75.72006897 48.59085083 76.82398987 C58.76022003 116.81798565 78.49185804 153.58963311 103.16043091 186.5146637 C103.64834106 187.16709045 104.13625122 187.81951721 104.63894653 188.49171448 C113.32461303 200.06268799 122.3992025 211.29683625 131.59011841 222.4677887 C133.02934618 224.2194467 134.46440008 225.97454431 135.89480591 227.7334137 C137.11038934 229.22564715 138.32833153 230.71605077 139.56082153 232.1943512 C146.16780276 240.12619236 151.26257612 246.46009037 152.59793091 256.9521637 C151.23230859 268.07223115 144.86186547 274.84346371 137.64285278 282.85108948 C134.83631176 286.00059055 132.20662105 289.29288053 129.55105591 292.5693512 C127.78040206 294.75084303 125.99925835 296.92113069 124.20730591 299.0849762 C111.19521565 314.85430484 99.20754404 331.31169963 88.16043091 348.5146637 C87.70071899 349.22912659 87.24100708 349.94358948 86.7673645 350.67970276 C69.15005444 378.26494809 55.7342237 407.48684453 47.84793091 439.2646637 C47.59317993 440.26964905 47.33842896 441.2746344 47.07595825 442.31007385 C45.17935972 450.25717075 44.76047654 457.11402486 44.16043091 465.5146637 C142.50043091 465.5146637 240.84043091 465.5146637 342.16043091 465.5146637 C341.5003651 456.27374244 340.76075497 448.26130367 338.53543091 439.4521637 C338.26964233 438.38071106 338.00385376 437.30925842 337.73001099 436.20533752 C333.2400806 418.54738319 327.13713805 401.88871265 319.16043091 385.5146637 C318.72633911 384.62053772 318.29224731 383.72641174 317.84500122 382.80519104 C306.60294568 359.90664485 292.69531338 338.71577168 277.16043091 318.5146637 C276.677677 317.8856012 276.1949231 317.2565387 275.69754028 316.6084137 C272.56349175 312.54072554 269.37602226 308.51808601 266.16043091 304.5146637 C265.65157349 303.87963928 265.14271606 303.24461487 264.61843872 302.59034729 C259.27904137 295.93800998 253.90862086 289.33126783 248.2805481 282.92018127 C233.42931217 265.94368227 233.42931217 265.94368227 234.16043091 253.5146637 C235.31759058 245.62493868 240.07359229 240.36663011 245.16043091 234.5146637 C246.93347079 232.43315243 248.7044459 230.35003222 250.47293091 228.2646637 C250.93981323 227.71608704 251.40669556 227.16751038 251.88772583 226.60231018 C256.63118724 221.00789464 261.15247977 215.25154465 265.6477356 209.45704651 C267.27082926 207.37290623 268.90626986 205.29885453 270.54324341 203.2256012 C304.2071764 160.47627143 342.16043091 104.04953952 342.16043091 47.5146637 C243.82043091 47.5146637 145.48043091 47.5146637 44.16043091 47.5146637 Z " fill="#000000" transform="translate(62.839569091796875,-0.5146636962890625)"/>
<path d="M0 0 C4.74675987 1.89870395 6.02080983 4.40849161 8 9 C8.56202128 11.6200509 9.03678524 14.17111141 9.4375 16.8125 C10.51109513 23.04657517 11.85860992 28.48243024 15 34 C15.75796875 35.33804688 15.75796875 35.33804688 16.53125 36.703125 C22.78057486 47.09972908 30.78598891 53.73269509 40.35668945 60.92773438 C47.50921128 66.3199831 54.2702768 72.09396688 61 78 C61.721875 78.62132812 62.44375 79.24265625 63.1875 79.8828125 C65.14297071 81.56940599 67.07487013 83.2788337 69 85 C70.44246094 86.28583984 70.44246094 86.28583984 71.9140625 87.59765625 C84.57168176 99.00393 95.76189104 111.389143 106 125 C107.06154297 126.40185547 107.06154297 126.40185547 108.14453125 127.83203125 C111.93162151 132.93377217 115.48321167 138.16966394 118.9375 143.5 C119.32760254 144.10005859 119.71770508 144.70011719 120.11962891 145.31835938 C123.64747876 150.83583475 125.0200468 155.49165794 124 162 C122.29459077 165.0735547 120.18841729 167.40579136 117 169 C115.66647034 169.09663966 114.3282805 169.13275231 112.99126053 169.13701439 C112.1479969 169.14208893 111.30473326 169.14716347 110.43591619 169.15239179 C109.03837956 169.15313843 109.03837956 169.15313843 107.61260986 169.15390015 C106.62691474 169.1582824 105.64121961 169.16266465 104.62565494 169.1671797 C101.30154153 169.18060273 97.97745464 169.18675441 94.65332031 169.19287109 C92.27855305 169.20076926 89.90378699 169.20903803 87.52902222 169.21765137 C80.38702262 169.24163648 73.2450177 169.25680387 66.10299122 169.26971143 C64.08612626 169.27342278 62.069262 169.27739606 60.05239773 169.2814641 C47.53092699 169.30670027 35.00945519 169.32875583 22.48796463 169.34119225 C19.58702846 169.344122 16.68609233 169.34708365 13.78515625 169.35009766 C13.06413234 169.35084371 12.34310843 169.35158976 11.60023531 169.35235842 C-0.0806719 169.36501281 -11.76142692 169.39823637 -23.44226298 169.43989949 C-35.43178787 169.48231344 -47.42123483 169.50588665 -59.41083455 169.51111281 C-66.14377253 169.51452759 -72.87647268 169.52629023 -79.60933685 169.55921555 C-85.9426081 169.58921724 -92.27546427 169.59563595 -98.60879135 169.58383179 C-100.93482126 169.5836104 -103.26086999 169.59196922 -105.58683395 169.60948563 C-108.75995123 169.63208324 -111.9315515 169.62392496 -115.10467529 169.60800171 C-116.02744349 169.6218838 -116.95021169 169.63576588 -117.90094256 169.65006864 C-122.24080871 169.59632482 -125.10864567 169.3669723 -128.55595779 166.58699989 C-131.97975512 162.96293674 -132.4864766 160.63377125 -132.390625 155.6015625 C-130.29422374 141.63953009 -115.68673469 126.40569139 -106.609375 116.01171875 C-104.19931588 113.23004872 -101.90745416 110.3863882 -99.625 107.5 C-92.65493792 98.94071371 -84.67399994 91.05092688 -76.25390625 83.9140625 C-74.40746436 82.34602693 -72.58909956 80.75600059 -70.77734375 79.1484375 C-64.14089132 73.28649096 -57.39357132 67.69354432 -50.3125 62.375 C-34.7529894 50.5936519 -20.71279879 38.24449753 -17.34375 18.0703125 C-17.16368408 17.00562744 -17.16368408 17.00562744 -16.97998047 15.91943359 C-16.74878471 14.50649998 -16.53836863 13.08995886 -16.35205078 11.67041016 C-15.56145236 6.62217405 -13.91258799 4.22213128 -10 1 C-6.801457 -0.5992715 -3.47898371 -0.36127908 0 0 Z " fill="#000000" transform="translate(260,279)"/>
<path d="M0 0 C1.14055344 -0.00511093 2.28110687 -0.01022186 3.45622253 -0.01548767 C7.22094999 -0.02937114 10.98549414 -0.02842787 14.75024414 -0.02612305 C17.37048918 -0.03001048 19.99073358 -0.03434525 22.61097717 -0.03910828 C28.10101951 -0.04731145 33.59101036 -0.04641965 39.08105469 -0.04101562 C45.41587847 -0.0349757 51.75048015 -0.04729098 58.08526605 -0.06858569 C64.19350684 -0.08835945 70.30164413 -0.09137152 76.40991402 -0.08785057 C79.00263554 -0.08836374 81.59536062 -0.09360066 84.18806267 -0.10366249 C87.81435094 -0.11600906 91.44012609 -0.10924538 95.06640625 -0.09765625 C96.1352002 -0.10529999 97.20399414 -0.11294373 98.30517578 -0.12081909 C104.91086918 -0.07419665 110.35299639 0.3542446 115.47290039 4.9621582 C117.77800933 9.70043768 117.91877621 13.99652522 116.66430664 18.9934082 C116.18366789 20.26184833 115.68133166 21.52222674 115.16040039 22.7746582 C114.75422485 23.80006714 114.75422485 23.80006714 114.33984375 24.84619141 C111.47885196 31.89352883 108.10818992 38.68228722 104.57397461 45.41235352 C103.66390853 47.14871771 102.7727217 48.89494073 101.88305664 50.6418457 C96.00405902 61.957187 89.00917093 72.40237291 81.03540039 82.3371582 C70.27971508 95.7566613 62.81689115 108.178962 60.8112793 125.5 C60.14132734 130.70038227 59.0217252 134.10985639 55.59790039 138.2746582 C51.35465569 141.103488 47.5805551 140.92733821 42.59790039 140.2746582 C38.91557054 138.12663246 37.26358175 136.11819804 35.59790039 132.2746582 C35.15893555 130.23510742 35.15893555 130.23510742 34.88696289 128.0793457 C34.77900391 127.28592773 34.67104492 126.49250977 34.55981445 125.67504883 C34.44863281 124.84166992 34.33745117 124.00829102 34.22290039 123.1496582 C31.90808585 107.49373693 25.11152825 96.63843845 15.43579102 84.25195312 C1.2808688 66.08450663 -10.8526024 45.99003786 -19.58959961 24.6496582 C-19.89325439 23.94043213 -20.19690918 23.23120605 -20.50976562 22.50048828 C-22.55490307 17.25732029 -22.7516436 12.760937 -21.40209961 7.2746582 C-19.56960805 4.08476549 -18.30646365 2.68808711 -14.97019958 1.16291809 C-9.9572277 -0.08503513 -5.14759691 -0.01190935 0 0 Z " fill="#000000" transform="translate(208.402099609375,115.725341796875)"/>
</svg>
