<?xml version="1.0" encoding="UTF-8"?>
<svg version="1.1" xmlns="http://www.w3.org/2000/svg" width="48" height="48">
<path d="M0 0 C11.22 0 22.44 0 34 0 C34 11.22 34 22.44 34 34 C33.34 34 32.68 34 32 34 C31.67 24.1 31.34 14.2 31 4 C21.76 4 12.52 4 3 4 C2.67 14.56 2.34 25.12 2 36 C14.54 36 27.08 36 40 36 C40 36.66 40 37.32 40 38 C24.82 38 9.64 38 -6 38 C-6 37.34 -6 36.68 -6 36 C-4.02 36 -2.04 36 0 36 C0 24.12 0 12.24 0 0 Z " fill="#000000" transform="translate(7,5)"/>
<path d="M0 0 C7.26 0 14.52 0 22 0 C22 0.66 22 1.32 22 2 C14.74 2 7.48 2 0 2 C0 1.34 0 0.68 0 0 Z " fill="#000000" transform="translate(13,17)"/>
<path d="M0 0 C4.62 0 9.24 0 14 0 C14 0.66 14 1.32 14 2 C9.38 2 4.76 2 0 2 C0 1.34 0 0.68 0 0 Z " fill="#000000" transform="translate(13,31)"/>
<path d="M0 0 C3.63 0 7.26 0 11 0 C11 0.66 11 1.32 11 2 C7.37 2 3.74 2 0 2 C0 1.34 0 0.68 0 0 Z " fill="#000000" transform="translate(13,25)"/>
<path d="M0 0 C1.65 0 3.3 0 5 0 C5 0.66 5 1.32 5 2 C3.35 2 1.7 2 0 2 C0 1.34 0 0.68 0 0 Z " fill="#000000" transform="translate(30,31)"/>
<path d="M0 0 C1.65 0 3.3 0 5 0 C5 0.66 5 1.32 5 2 C3.35 2 1.7 2 0 2 C0 1.34 0 0.68 0 0 Z " fill="#000000" transform="translate(30,25)"/>
</svg>
